<?xml version="1.0" standalone="no"?><!DOCTYPE svg PUBLIC "-//W3C//DTD SVG 1.1//EN" "http://www.w3.org/Graphics/SVG/1.1/DTD/svg11.dtd"><svg t="1555842006085" class="icon" style="" viewBox="0 0 1024 1024" version="1.1" xmlns="http://www.w3.org/2000/svg" p-id="9618" xmlns:xlink="http://www.w3.org/1999/xlink" width="200" height="200"><defs><style type="text/css"></style></defs><path d="M488.521143 74.093714a34.596571 34.596571 0 0 1 49.005714 0l155.794286 155.940572a34.596571 34.596571 0 0 1-48.786286 48.859428L547.620571 181.979429v577.828571a34.596571 34.596571 0 0 1-69.193142 0v-577.828571L381.513143 278.893714a34.450286 34.450286 0 0 1-48.786286 0 34.669714 34.669714 0 0 1-0.146286-48.859428L488.594286 74.093714z m436.882286 566.272a34.596571 34.596571 0 0 0-34.596572 34.669715V870.4a20.626286 20.626286 0 0 1-20.626286 20.626286H153.673143a20.626286 20.626286 0 0 1-20.553143-20.626286V674.889143a34.596571 34.596571 0 0 0-69.12 0v222.939428a62.171429 62.171429 0 0 0 62.098286 62.098286h771.803428a62.171429 62.171429 0 0 0 62.098286-62.171428V674.962286a34.596571 34.596571 0 0 0-34.596571-34.523429z" p-id="9619"></path></svg>