<?xml version="1.0" standalone="no"?><!DOCTYPE svg PUBLIC "-//W3C//DTD SVG 1.1//EN" "http://www.w3.org/Graphics/SVG/1.1/DTD/svg11.dtd"><svg t="1555831460329" class="icon" style="" viewBox="0 0 1024 1024" version="1.1" xmlns="http://www.w3.org/2000/svg" p-id="3220" xmlns:xlink="http://www.w3.org/1999/xlink" width="200" height="200"><defs><style type="text/css"></style></defs><path d="M438.272 64H320h448a128 128 0 0 1 128 128v403.456c0 24.96-20.224 45.248-45.504 45.248a45.76 45.76 0 0 1-45.504-45.248V490.88l0.064-3.136V216.576a64 64 0 0 0-64-64H448v-0.128h-19.456a44.288 44.288 0 1 1 0-88.448h9.728z m89.6 960H320h207.872zM194.24 230.272h473.6a64 64 0 0 1 64 64v601.6a64 64 0 0 1-64 64h-473.6a64 64 0 0 1-64-64v-601.6a64 64 0 0 1 64-64zM288 448a32 32 0 0 0 0 64h256a32 32 0 0 0 0-64h-256zM256 672c0 17.152 14.272 32 31.872 32h256.256A31.616 31.616 0 0 0 576 672c0-17.152-14.272-32-31.872-32H287.872a31.616 31.616 0 0 0-31.872 32z" p-id="3221"></path></svg>