<?xml version="1.0" standalone="no"?><!DOCTYPE svg PUBLIC "-//W3C//DTD SVG 1.1//EN" "http://www.w3.org/Graphics/SVG/1.1/DTD/svg11.dtd"><svg t="1555843300823" class="icon" style="" viewBox="0 0 1024 1024" version="1.1" xmlns="http://www.w3.org/2000/svg" p-id="14042" xmlns:xlink="http://www.w3.org/1999/xlink" width="200" height="200"><defs><style type="text/css"></style></defs><path d="M168.45 407.559C110.766 407.559 64 454.305 64 512.01c0 57.686 46.766 104.431 104.45 104.431S272.9 569.695 272.9 512.01c0.001-57.705-46.766-104.451-104.45-104.451z m333.139 0c-57.685 0-104.45 46.746-104.45 104.45 0 57.686 46.767 104.431 104.45 104.431s104.45-46.746 104.45-104.431c0-57.704-46.765-104.45-104.45-104.45z m353.961 0c-57.686 0-104.452 46.746-104.452 104.45 0 57.686 46.767 104.431 104.452 104.431 57.686 0 104.45-46.746 104.45-104.431-0.001-57.704-46.766-104.45-104.45-104.45z" p-id="14043"></path></svg>