<?xml version="1.0" standalone="no"?><!DOCTYPE svg PUBLIC "-//W3C//DTD SVG 1.1//EN" "http://www.w3.org/Graphics/SVG/1.1/DTD/svg11.dtd"><svg t="1555833031939" class="icon" style="" viewBox="0 0 1024 1024" version="1.1" xmlns="http://www.w3.org/2000/svg" p-id="6724" xmlns:xlink="http://www.w3.org/1999/xlink" width="200" height="200"><defs><style type="text/css"></style></defs><path d="M872.893136 1024h-721.574681A151.318455 151.318455 0 0 1 0 872.893773v-721.574681A151.318455 151.318455 0 0 1 151.106227 0.000637h197.424955a132.642405 132.642405 0 0 1 104.097759 49.926601L544.470542 164.477218h328.422594A151.318455 151.318455 0 0 1 1023.999363 315.583446v557.098099A151.318455 151.318455 0 0 1 872.893136 1024z m-721.574681-917.88544a44.992304 44.992304 0 0 0-44.992303 44.992304v721.574681a44.992304 44.992304 0 0 0 44.992303 44.992303h721.574681a44.992304 44.992304 0 0 0 44.992304-44.992303v-557.098099a44.992304 44.992304 0 0 0-44.992304-44.992304h-333.463005a95.502531 95.502531 0 0 1-74.279747-35.760392L370.125366 116.354554a27.218221 27.218221 0 0 0-21.222785-10.239994z" p-id="6725"></path><path d="M63.668354 164.477218h488.124049v106.113924H63.668354zM668.517719 626.072786H344.870252a53.056962 53.056962 0 0 1 0-106.113923h323.647467a53.056962 53.056962 0 0 1 0 106.113923z" p-id="6726"></path><path d="M506.693985 787.89652a53.056962 53.056962 0 0 1-53.056961-53.056962v-323.647467a53.056962 53.056962 0 0 1 106.113923 0v323.647467a53.056962 53.056962 0 0 1-53.056962 53.056962z" p-id="6727"></path></svg>