<?xml version="1.0" standalone="no"?><!DOCTYPE svg PUBLIC "-//W3C//DTD SVG 1.1//EN" "http://www.w3.org/Graphics/SVG/1.1/DTD/svg11.dtd"><svg t="1555823692280" class="icon" style="" viewBox="0 0 1024 1024" version="1.1" xmlns="http://www.w3.org/2000/svg" p-id="2611" xmlns:xlink="http://www.w3.org/1999/xlink" width="200" height="200"><defs><style type="text/css"></style></defs><path d="M670.446735 893.884912H366.207044a140.958012 140.958012 0 0 0 152.438755 127.563812 140.958012 140.958012 0 0 0 151.800936-127.563812zM880.289205 830.103007H142.970374a31.890953 31.890953 0 0 1-31.890953-31.890953v-45.922972a31.890953 31.890953 0 0 1 8.291648-21.685848l50.387706-54.21462a99.499773 99.499773 0 0 0 26.7884-67.60882V424.450086A332.303729 332.303729 0 0 1 417.232569 110.005291V102.989281A97.586316 97.586316 0 0 1 511.62979 0.938232a82.916477 82.916477 0 0 1 24.874943 0 96.948497 96.948497 0 0 1 69.522277 102.688868v5.740372a334.217186 334.217186 0 0 1 220.685394 315.082614v183.691889a99.499773 99.499773 0 0 0 26.7884 67.60882l50.387706 54.21462a31.890953 31.890953 0 0 1 8.291648 21.685847v45.922973a31.890953 31.890953 0 0 1-31.890953 32.528772zM174.861327 766.321101h673.536925l-42.096058-45.285153a163.281679 163.281679 0 0 1-43.371696-110.980516V424.450086a267.884004 267.884004 0 0 0-196.44827-260.230175 31.890953 31.890953 0 0 1-24.237124-30.615315v-29.977496c0-16.583295-7.01601-34.442229-22.323667-38.269143h-8.291647a34.442229 34.442229 0 0 0-30.615315 38.269143v31.253134a31.890953 31.890953 0 0 1-24.237124 31.253134 265.970547 265.970547 0 0 0-196.44827 258.316718v183.691889a162.64386 162.64386 0 0 1-43.371696 110.980516z m274.262195-632.078686z" fill="#231815" p-id="2612"></path></svg>