<?xml version="1.0" standalone="no"?><!DOCTYPE svg PUBLIC "-//W3C//DTD SVG 1.1//EN" "http://www.w3.org/Graphics/SVG/1.1/DTD/svg11.dtd"><svg t="1555833617415" class="icon" style="" viewBox="0 0 1025 1024" version="1.1" xmlns="http://www.w3.org/2000/svg" p-id="7493" xmlns:xlink="http://www.w3.org/1999/xlink" width="200.1953125" height="200"><defs><style type="text/css"></style></defs><path d="M1003.96323 918.836888l-279.851394-280.216736a396.724059 396.724059 0 0 0 76.721661-236.375787A404.067418 404.067418 0 0 0 398.958127 0.003653 397.235537 397.235537 0 0 0 0.005486 399.321636a404.140487 404.140487 0 0 0 401.875371 402.606053 395.956843 395.956843 0 0 0 236.741127-77.452344 0.365341 0.365341 0 0 1 0.365341-0.365342l279.851395 279.851395a60.244771 60.244771 0 1 0 85.12451-85.12451z m-602.447715-197.284273a323.217401 323.217401 0 0 1-321.500296-321.865638 318.102623 318.102623 0 0 1 319.308249-319.673591 323.801947 323.801947 0 0 1 321.500296 322.230979 317.846884 317.846884 0 0 1-319.308249 319.30825z" fill="#8E8E93" p-id="7494"></path></svg>