<?xml version="1.0" standalone="no"?><!DOCTYPE svg PUBLIC "-//W3C//DTD SVG 1.1//EN" "http://www.w3.org/Graphics/SVG/1.1/DTD/svg11.dtd"><svg t="1555831540397" class="icon" style="" viewBox="0 0 1024 1024" version="1.1" xmlns="http://www.w3.org/2000/svg" p-id="4717" xmlns:xlink="http://www.w3.org/1999/xlink" width="200" height="200"><defs><style type="text/css"></style></defs><path d="M621.64765 804.386078a37.07011 37.07011 0 0 1-25.896119-10.626765 35.940354 35.940354 0 0 1-10.66207-25.931424V365.670155c0-13.062801 6.990364-25.10176 18.305573-31.580203a36.505232 36.505232 0 0 1 36.575842 0 36.364012 36.364012 0 0 1 18.305573 31.580203v402.175386c0 9.761796-3.795273 19.029323-10.662069 25.931425a36.664104 36.664104 0 0 1-25.96673 10.609112z m-219.45505 0a36.575842 36.575842 0 0 1-36.540536-36.646451V365.705459a36.452275 36.452275 0 0 1 36.540536-36.646451c9.761796 0 18.976366 3.830578 25.931425 10.66207 6.849144 6.831492 10.697375 16.099019 10.644417 25.860814v402.175387c0 9.726491-3.91884 18.994018-10.644417 25.89612a35.905049 35.905049 0 0 1-25.931425 10.732679zM987.317805 182.790946H804.438597v-73.081073C804.438597 49.232636 755.629619 0 695.523084 0H329.023265a109.851092 109.851092 0 0 0-109.709873 109.709873v73.169335H36.540098A36.558189 36.558189 0 0 0 0.017214 219.419745c0 20.229688 16.363806 36.540537 36.522884 36.540537h950.760055c20.159079 0 36.522884-16.416763 36.522884-36.540537a36.364012 36.364012 0 0 0-36.505232-36.628799z m-694.85273-73.081073c0-20.176731 16.54033-36.505232 36.522885-36.505232h366.482166c20.035512 0 35.728525 16.028409 35.728525 36.505232v73.169335H292.465075V109.709873z" p-id="4718"></path><path d="M768.109889 1023.841128H256.08341a109.921702 109.921702 0 0 1-109.745177-109.709873V365.122929a36.752366 36.752366 0 0 1 17.864262-32.745263 36.152183 36.152183 0 0 1 37.370202 0 36.893585 36.893585 0 0 1 17.881914 32.745263v549.025979c0 20.176731 16.381458 36.469927 36.505232 36.469927h512.044131a36.364012 36.364012 0 0 0 36.540537-36.48758v-547.578479a36.611147 36.611147 0 0 1 55.234464-32.727611 36.805323 36.805323 0 0 1 17.864262 32.727611v547.578479c0.07061 60.618456-49.056112 109.568653-109.533348 109.709873z" p-id="4719"></path></svg>